<svg version="1.2" xmlns="http://www.w3.org/2000/svg" viewBox="0 0 480 360" width="480" height="360">
	<title>illustration_empty_content-svg</title>
	<defs>
		<linearGradient id="g1" x2="1" gradientUnits="userSpaceOnUse" gradientTransform="matrix(176.583,-397.984,479.799,212.884,328.81,424.032)">
			<stop offset="0" stop-color="#919eab" stop-opacity="1"/>
			<stop offset="1" stop-color="#919eab" stop-opacity=".01"/>
		</linearGradient>
	</defs>
	<style>
		.s0 { opacity: .2;fill: url(#g1) } 
		.s1 { fill: #919eab } 
		.s2 { opacity: .3;fill: #919eab } 
		.s3 { opacity: .1;fill: #45576d } 
		.s4 { opacity: .7;fill: #ffffff } 
		.s5 { opacity: .2;fill: #45576d } 
		.s6 { fill: #b8c6d7 } 
		.s7 { fill: #87a1c3 } 
		.s8 { fill: #ffffff } 
	</style>
	<g id="illustrations/illustration_empty_content">
		<g id="Illustration/Background">
			<path id="BG" fill-rule="evenodd" class="s0" d="m0 198.8c0 41.4 14.9 79.2 39.5 107.8 28.3 32.7 69.2 53.3 114.8 53.4 19.9 0 39-3.9 56.5-11 9-3.7 19.1-3.3 27.9 1.1 10.3 5.1 21.8 8 34 8 5 0 9.9-0.5 14.7-1.5 13.6-2.6 25.9-8.9 36.1-17.9 6.3-5.6 14.5-8.4 22.9-8.4h0.1c27.6 0 53.2-8.8 74.5-23.7 19-13.4 34.5-31.7 44.9-53.3 9-18.7 14.1-39.9 14.1-62.3 0-77-59.8-139.3-133.5-139.3-7.5 0-14.9 0.6-22.1 1.9-19-32.2-53-53.6-91.9-53.6-16.4 0-32 3.8-45.9 10.7-13.2 6.4-25 15.7-34.6 26.9-32.7 0.5-63 11.7-87.7 30.3-38.9 29.3-64.3 77-64.3 130.9z"/>
			<g id="Vector" style="opacity: .2">
				<path id="Layer" fill-rule="evenodd" class="s1" d="m271.9 75.6c-2.5 0-5-0.9-6.9-2.8-3.9-3.9-3.9-10.1 0-13.9 3.8-3.9 10.1-3.9 13.9 0 3.8 3.8 3.8 10 0 13.9-1.9 1.9-4.5 2.8-7 2.8zm0-12.8c-0.8 0-1.5 0.3-2.1 0.9-1.2 1.2-1.2 3.1 0 4.3 1.2 1.2 3.1 1.2 4.3 0 1.2-1.2 1.2-3.1 0-4.3-0.6-0.6-1.4-0.9-2.2-0.9z"/>
				<path id="Layer" fill-rule="evenodd" class="s1" d="m194.6 305c-2.5 0-5.1-1-7-2.9-3.8-3.8-3.8-10 0-13.9 3.9-3.8 10.1-3.8 13.9 0 3.9 3.9 3.9 10.1 0 13.9-1.9 1.9-4.4 2.9-6.9 2.9zm0-12.9c-0.8 0-1.6 0.3-2.2 0.9-1.2 1.2-1.2 3.1 0 4.3 1.2 1.2 3.1 1.2 4.3 0 1.2-1.2 1.2-3.1 0-4.3-0.6-0.6-1.3-0.9-2.1-0.9z"/>
			</g>
			<g id="Vector_2" style="opacity: .2">
				<path id="Layer" class="s1" d="m366.6 258.7c-0.9 0-1.7-0.3-2.4-1l-4-4-4.1 4c-1.3 1.4-3.5 1.4-4.8 0-1.3-1.3-1.3-3.4 0-4.8l6.5-6.4c1.3-1.3 3.4-1.3 4.8 0l6.4 6.4c1.3 1.4 1.3 3.5 0 4.8-0.7 0.7-1.5 1-2.4 1z"/>
				<path id="Layer" class="s1" d="m127.3 245.8c-0.9 0-1.8-0.3-2.4-1l-4.1-4-4 4c-1.3 1.4-3.5 1.4-4.8 0-1.3-1.3-1.3-3.4 0-4.8l6.4-6.4c1.4-1.3 3.5-1.3 4.8 0l6.5 6.4c1.3 1.4 1.3 3.5 0 4.8-0.7 0.7-1.5 1-2.4 1z"/>
			</g>
		</g>
		<path id="Intersect_2" fill-rule="evenodd" class="s2" d="m281 282c-3.2 0-5.8 2.6-5.8 5.8 0 3.2 2.6 5.8 5.8 5.8 3.2 0 5.8-2.6 5.8-5.8 0-3.2-2.6-5.8-5.8-5.8zm23.1 0c-3.2 0-5.8 2.6-5.8 5.8 0 3.2 2.6 5.8 5.8 5.8 3.2 0 5.8-2.6 5.8-5.8 0-3.2-2.6-5.8-5.8-5.8zm23.1 0c-3.3 0-5.8 2.6-5.8 5.8 0 3.2 2.5 5.8 5.8 5.8 3.2 0 5.7-2.6 5.7-5.8 0-3.2-2.5-5.8-5.7-5.8z"/>
	</g>
	<g id="&lt;Group&gt;">
		<path id="&lt;Path&gt;" class="s3" d="m406.2 140.6l-26.7 1.6-12.3 16.9c-1.9 2.6-5.6 2.8-7.7 0.4l-13.3-15.3-26.5 1.6c-11.8 0.8-22-8.3-22.7-20.1l-2.8-45.2c-0.7-11.8 8.3-22 20.2-22.8l86.5-5.2c11.8-0.8 22 8.3 22.7 20.1l2.8 45.2c0.7 11.8-8.3 22-20.2 22.8z"/>
		<g id="&lt;Group&gt;">
			<path id="&lt;Path&gt;" class="s4" d="m385.4 105l-19.4 19.5c-1.7 1.6-4.2 1.7-6 0.3l-21.7-16.9c-21.7-17 2.3-45.3 22.1-25 14.7-23.7 42.6 2.9 25 22.1z"/>
			<path id="&lt;Path&gt;" class="s5" d="m147.1 145c-0.2-0.6-0.6-1-1.1-1.2l-19.1-5.3-5.9-18.6c-0.2-0.5-0.7-0.9-1.3-1-0.6-0.1-1.2 0.1-1.5 0.6l-11.4 15.9-19.8-0.2c-0.6 0-1.2 0.4-1.4 0.9-0.3 0.5-0.2 1.1 0.1 1.6l11.7 16-5.5 18.7c-0.1 0.6 0 1.2 0.5 1.6 0.4 0.4 1 0.5 1.6 0.3l18.4-6.9 15.4 12.1c0.5 0.3 1.1 0.4 1.6 0.2 0.6-0.3 0.9-0.8 0.9-1.4l0.5-19.7 15.7-12c0.5-0.4 0.7-1 0.6-1.6z"/>
		</g>
	</g>
	<g id="&lt;Group&gt;" style="opacity: .5">
		<g id="&lt;Group&gt;">
			<path id="&lt;Path&gt;" class="s6" d="m312.6 159.1c-1-10.1-11.9-8.3-11.9-8.3l-38 5.5 0.5-25.4c-2.3-11.6-11.9-22.7-11.9-22.7-14.9-3.5-16.8 5.6-16.8 5.6l2.8 19.6-16.9 39.2-8.5 7.5 7.7 53.3 6.7-1 10.1 2.8 65-9.3c6.3-1 9.1-6.6 9.7-9.8 1.3-7.4-4-10.6-4-10.6 9.2-11.6 0.7-17.6 0.7-17.6 9.5-11.9 0.5-18.2 0.5-18.2 5.2-3.1 4.3-10.6 4.3-10.6z"/>
			<path id="&lt;Path&gt;" class="s7" d="m312.6 159.1c-1-10.1-11.9-8.3-11.9-8.3l-10.7 1.5q-0.1 0.1-0.2 0.1l-2.1 0.3-10.9 1.5c1.3-0.1 10.9-1.1 11.8 8.3 0 0 0.9 7.6-4.3 10.7 0 0 8.9 6.2-0.5 18.1 0 0 8.5 6.1-0.7 17.7 0 0 5.3 3.2 4 10.5-0.6 3.3-3.4 8.9-9.7 9.8l10.9-1.6 2.2-0.3 10.9-1.5c6.3-1 9.1-6.6 9.7-9.8 1.3-7.4-4-10.6-4-10.6 9.2-11.6 0.7-17.6 0.7-17.6 9.5-11.9 0.5-18.2 0.5-18.2 5.2-3.1 4.3-10.6 4.3-10.6z"/>
			<path id="&lt;Path&gt;" class="s7" d="m238.2 110c0 0 9.5 11.2 11.9 22.8l-0.2 28 13.2-1.9 0.1-28c-2.3-11.6-11.9-22.7-11.9-22.7-7.6-1.8-11.8-0.3-14.1 1.6q0.5 0.1 1 0.2z"/>
			<path id="&lt;Compound Path&gt;" fill-rule="evenodd" class="s8" d="m301.8 228.5l-65.6 9.4-10.1-2.7-8.7 1.2-8.3-57.3 9.1-8.1 16.4-37.9-2.8-19.4 0.1-0.4c0-0.3 1.6-7.1 10.4-8.4 2.8-0.4 6-0.2 9.6 0.7l0.9 0.2 0.6 0.6c0.4 0.5 10 11.9 12.4 23.9l0.1 0.3-0.5 22.6c0 0 35-5 35-5 1.1-0.2 6.6-0.8 10.7 2.4 2.4 1.9 3.8 4.7 4.2 8.2 0 0.3 0.7 6.8-3.1 11.1 1.1 1.4 2.1 3.3 2.5 5.8 0.5 3.8-0.6 7.8-3.4 11.9 1.1 1.3 2.3 3.3 2.6 6 0.6 3.6-0.5 7.5-3.2 11.5 1.9 2.1 4.1 5.8 3 11.5-0.9 5-5 10.9-11.9 11.9zm-65.2 4l64.4-9.3c5-0.7 7.1-5.3 7.5-7.6 0.9-5.3-2.4-7.6-2.8-7.8l-2.6-1.6 1.9-2.3c2.8-3.5 4-6.7 3.7-9.5-0.4-2.8-2.4-4.3-2.4-4.4l-2.3-1.6 1.7-2.2c2.9-3.6 4.1-6.9 3.7-9.7-0.4-3-2.6-4.6-2.6-4.6l-3.4-2.4 3.6-2.1c3.5-2.1 3-8 3-8-0.2-2.1-0.9-3.6-2.2-4.6-2.5-1.9-6.5-1.4-6.6-1.4l-41.2 6 0.5-28.3c-1.9-9.1-8.7-18-10.6-20.5q-3.9-0.8-6.8-0.4c-4.2 0.6-5.5 2.9-5.9 3.9l2.9 19.7-17.5 40.4-7.8 6.9 7.1 49.3 4.6-0.7z"/>
		</g>
		<g id="&lt;Group&gt;">
			<path id="&lt;Path&gt;" class="s6" d="m165.8 180.5l45.3-6.5 9.8 68.1-45.3 6.6z"/>
			<path id="&lt;Path&gt;" class="s7" d="m174.6 192.2l31.3-4.6 8 55.5-31.3 4.6z"/>
			<path id="&lt;Compound Path&gt;" fill-rule="evenodd" class="s8" d="m162.7 178.3l50.6-7.3 10.6 73.4-50.6 7.3zm15.1 67.4l40-5.8-9-62.9-40 5.8z"/>
		</g>
		<g id="&lt;Group&gt;">
			<path id="&lt;Path&gt;" class="s8" d="m204.9 233c-2.1 0.3-4-1.1-4.3-3.2-0.3-2 1.1-3.9 3.2-4.2 2-0.3 3.9 1.1 4.2 3.2 0.3 2-1.1 3.9-3.1 4.2z"/>
		</g>
	</g>
</svg>