<svg width="25" height="24" viewBox="0 0 25 24" fill="none" xmlns="http://www.w3.org/2000/svg">
<g clip-path="url(#clip0_6_1432)">
<path fill-rule="evenodd" clip-rule="evenodd" d="M18.6666 4C18.6666 3.73478 18.5613 3.48043 18.3737 3.29289C18.1862 3.10536 17.9318 3 17.6666 3C17.4014 3 17.1471 3.10536 16.9595 3.29289C16.772 3.48043 16.6666 3.73478 16.6666 4V5H4.66663C4.40141 5 4.14706 5.10536 3.95952 5.29289C3.77198 5.48043 3.66663 5.73478 3.66663 6C3.66663 6.26522 3.77198 6.51957 3.95952 6.70711C4.14706 6.89464 4.40141 7 4.66663 7H16.6666V8C16.6666 8.26522 16.772 8.51957 16.9595 8.70711C17.1471 8.89464 17.4014 9 17.6666 9C17.9318 9 18.1862 8.89464 18.3737 8.70711C18.5613 8.51957 18.6666 8.26522 18.6666 8V7H20.6666C20.9318 7 21.1862 6.89464 21.3737 6.70711C21.5613 6.51957 21.6666 6.26522 21.6666 6C21.6666 5.73478 21.5613 5.48043 21.3737 5.29289C21.1862 5.10536 20.9318 5 20.6666 5H18.6666V4ZM4.66663 11C4.40141 11 4.14706 11.1054 3.95952 11.2929C3.77198 11.4804 3.66663 11.7348 3.66663 12C3.66663 12.2652 3.77198 12.5196 3.95952 12.7071C4.14706 12.8946 4.40141 13 4.66663 13H6.66663V14C6.66663 14.2652 6.77198 14.5196 6.95952 14.7071C7.14706 14.8946 7.40141 15 7.66663 15C7.93184 15 8.1862 14.8946 8.37373 14.7071C8.56127 14.5196 8.66663 14.2652 8.66663 14V13H20.6666C20.9318 13 21.1862 12.8946 21.3737 12.7071C21.5613 12.5196 21.6666 12.2652 21.6666 12C21.6666 11.7348 21.5613 11.4804 21.3737 11.2929C21.1862 11.1054 20.9318 11 20.6666 11H8.66663V10C8.66663 9.73478 8.56127 9.48043 8.37373 9.29289C8.1862 9.10536 7.93184 9 7.66663 9C7.40141 9 7.14706 9.10536 6.95952 9.29289C6.77198 9.48043 6.66663 9.73478 6.66663 10V11H4.66663ZM3.66663 18C3.66663 17.7348 3.77198 17.4804 3.95952 17.2929C4.14706 17.1054 4.40141 17 4.66663 17H16.6666V16C16.6666 15.7348 16.772 15.4804 16.9595 15.2929C17.1471 15.1054 17.4014 15 17.6666 15C17.9318 15 18.1862 15.1054 18.3737 15.2929C18.5613 15.4804 18.6666 15.7348 18.6666 16V17H20.6666C20.9318 17 21.1862 17.1054 21.3737 17.2929C21.5613 17.4804 21.6666 17.7348 21.6666 18C21.6666 18.2652 21.5613 18.5196 21.3737 18.7071C21.1862 18.8946 20.9318 19 20.6666 19H18.6666V20C18.6666 20.2652 18.5613 20.5196 18.3737 20.7071C18.1862 20.8946 17.9318 21 17.6666 21C17.4014 21 17.1471 20.8946 16.9595 20.7071C16.772 20.5196 16.6666 20.2652 16.6666 20V19H4.66663C4.40141 19 4.14706 18.8946 3.95952 18.7071C3.77198 18.5196 3.66663 18.2652 3.66663 18Z" fill="black"/>
</g>
<defs>
<clipPath id="clip0_6_1432">
<rect width="24" height="24" fill="white" transform="translate(0.666626)"/>
</clipPath>
</defs>
</svg>
